<?xml version="1.0" encoding="utf-8"?>
<!-- Generator: Adobe Illustrator 18.0.0, SVG Export Plug-In . SVG Version: 6.00 Build 0)  -->
<!DOCTYPE svg PUBLIC "-//W3C//DTD SVG 1.1//EN" "http://www.w3.org/Graphics/SVG/1.1/DTD/svg11.dtd">
<svg version="1.1" id="Layer_1" xmlns="http://www.w3.org/2000/svg" xmlns:xlink="http://www.w3.org/1999/xlink" x="0px" y="0px"
	 viewBox="0 0 20 580" enable-background="new 0 0 20 580" xml:space="preserve">
<g>
	<path fill="#FFFFFF" d="M18.8,7.2v1.4L1,15v-1.3l6-2.1V4.2l-6-2V1L18.8,7.2z M8,11.2l9.5-3.3l0,0L8,4.6V11.2z"/>
	<path fill="#FFFFFF" d="M18.8,26.7v1.2H2.1v8.9H1V26.7H18.8z"/>
	<path fill="#FFFFFF" d="M18.8,48.8V50H1v-1.2H18.8z"/>
	<path fill="#FFFFFF" d="M18.8,63.4v10.3h-1.1v-9.1H11v6.8H9.9v-6.8H2.1v9.6H1V63.4H18.8z"/>
	<path fill="#FFFFFF" d="M18.8,86.1v1.4L3.4,97.8l0,0h15.4V99H1v-1l15.9-10.7l0,0H1v-1.2L18.8,86.1z"/>
	<path fill="#FFFFFF" d="M18.8,123.7v1.2l-11.4,3c-1.7,0.5-3.4,0.9-4.6,1.1l0,0c1.1,0.2,2.9,0.6,4.6,1.1l11.4,2.8v1.4l-11.5,2.9
		c-1.7,0.4-3.2,0.8-4.5,1.1l0,0c1.4,0.3,2.8,0.7,4.4,1.1l11.6,3v1.2L1,138.9v-1.2l16.1-4l0,0l-16.1-4v-1.2L18.8,123.7z"/>
	<path fill="#FFFFFF" d="M9.9,153.9c5.4,0,9.2,3,9.2,7.3s-3.8,7.3-9.2,7.3s-9.2-3-9.2-7.3C0.7,156.9,4.5,153.9,9.9,153.9z
		 M9.9,167.3c5.1,0,8.1-2.6,8.1-6.1s-3-6.1-8.1-6.1s-8.1,2.6-8.1,6.1C1.7,164.7,4.8,167.3,9.9,167.3z"/>
	<path fill="#FFFFFF" d="M18.8,180.7v5.8c0,3.9-1.7,6-4.6,6s-4.2-1.8-4.7-4.3L1,192.7v-1.4l8.3-4.5v-4.9H1v-1.2L18.8,180.7
		L18.8,180.7z M10.4,186.4c0,3.1,0.9,4.9,3.7,4.9c2.6,0,3.6-1.8,3.6-4.9v-4.5h-7.2L10.4,186.4L10.4,186.4z"/>
	<path fill="#FFFFFF" d="M18.8,205.1v1.2H2.1v8.9H1v-10.1L18.8,205.1L18.8,205.1z"/>
	<path fill="#FFFFFF" d="M18.8,226.9v4.3c0,5.9-3.2,8.7-8.9,8.7S1,237,1,231.2v-4.3H18.8z M2.1,231.4c0,4.5,2.4,7.2,7.8,7.2
		c5.3,0,7.8-2.7,7.8-7.3V228H2.1V231.4z"/>
	<path fill="#FFFFFF" d="M5.4,251l0.3,1.2c-2.6,0.7-4,2.6-4,5.2c0,2.9,1.4,4.7,3.6,4.7c2,0,3-0.8,4.3-4.9c1.3-4,2.4-5.6,5.1-5.6
		c2.4,0,4.4,2.2,4.4,5.3c0,3.3-1.7,5.1-4.2,5.9l-0.3-1.2c2.5-0.8,3.4-2.4,3.4-4.8c0-2.5-1.5-4.1-3.2-4.1c-2.1,0-2.9,1.2-4.2,5.2
		c-1.2,3.8-2.5,5.3-5.2,5.3c-3,0-4.7-2.7-4.7-6C0.7,254.1,2.5,251.8,5.4,251z"/>
</g>
<g>
	<path fill="#004455" d="M1,288.4h11.8v4.2c0,2.8-1.1,4.5-3.6,4.5c-1.9,0-3-1-3.4-2.6L1,297.3v-2.1l4.7-2.7v-2.1H1V288.4z
		 M7.4,290.4v2.2c0,1.7,0.4,2.6,1.8,2.6c1.4,0,1.8-0.9,1.8-2.6v-2.2H7.4z"/>
	<path fill="#004455" d="M1,300l11.9,4.2v2L1,310.3v-2l2.8-1v-4.5l-2.8-1V300z M5.6,303.4v3.3l4.8-1.6v0L5.6,303.4z"/>
	<path fill="#004455" d="M1,313.7h11.8v3.4c0,3.7-1.7,6.1-5.9,6.1c-4.2,0-6-2.5-6-6.1V313.7z M2.8,315.7v1.6c0,2.7,1.2,4,4.2,4
		c2.8,0,4-1.3,4-4v-1.5H2.8z"/>
	<path fill="#004455" d="M1,327.1h11.8v2H1V327.1z"/>
	<path fill="#004455" d="M1,332.5l11.9,4.2v2L1,342.9v-2l2.8-1v-4.5l-2.8-1V332.5z M5.6,336v3.3l4.8-1.6v0L5.6,336z"/>
	<path fill="#004455" d="M1,346.2h11.8v2h-10v5.5H1V346.2z"/>
	<path fill="#004455" d="M1,364.8l11.9-4.1v2l-9.2,3.1v0l9.2,3.1v1.9L1,366.6V364.8z"/>
	<path fill="#004455" d="M1,374.1h11.8v7.7H11v-5.7H8v4.1H6.3v-4.1H2.8v6H1V374.1z"/>
	<path fill="#004455" d="M1,385.6h11.8v2h-10v5.5H1V385.6z"/>
	<path fill="#004455" d="M6.9,395.4c4,0,6.1,2.4,6.1,5.4c0,3-2.2,5.3-6.1,5.3c-4,0-6.1-2.3-6.1-5.3C0.8,397.8,2.9,395.4,6.9,395.4z
		 M6.9,404.1c2.8,0,4.3-1.3,4.3-3.3c0-2-1.5-3.3-4.3-3.3c-2.8,0-4.3,1.3-4.3,3.3C2.6,402.8,4.1,404.1,6.9,404.1z"/>
	<path fill="#004455" d="M7,409.2c4,0,6.1,2.2,6.1,5.2c0,2.8-1.5,4.1-3.7,4.6l-0.5-1.9c1.6-0.4,2.4-1.1,2.4-2.7c0-2-1.6-3.2-4.2-3.2
		c-2.8,0-4.4,1.2-4.4,3.2c0,1.5,0.8,2.4,2.5,2.8l-0.4,1.9c-2.4-0.6-3.9-2-3.9-4.8C0.8,411.4,2.9,409.2,7,409.2z"/>
	<path fill="#004455" d="M1,423h11.8v2H1V423z"/>
	<path fill="#004455" d="M1,432.2h10v-3.6h1.9v9.3H11v-3.6H1V432.2z"/>
	<path fill="#004455" d="M1,444.1h5.1l6.7-4v2.1l-5,3l5,2.9v2.1l-6.7-4H1V444.1z"/>
	<path fill="#004455" d="M1,458.4h11.8v2.6l-9.4,3.2v0l9.4,3.1v2.7H1V468h8.8v0c-0.8-0.2-1.6-0.4-2.4-0.7L1,465v-1.8l6.4-2.3
		c0.8-0.3,1.4-0.5,2.5-0.7v0H1V458.4z"/>
	<path fill="#004455" d="M1,474.3h11.8v7.7H11v-5.7H8v4.1H6.3v-4.1H2.8v6H1V474.3z"/>
	<path fill="#004455" d="M1,488.5h10v-3.6h1.9v9.3H11v-3.6H1V488.5z"/>
	<path fill="#004455" d="M1,497.6h11.8v2H8.1v5.4h4.7v2H1v-2h5.3v-5.4H1V497.6z"/>
	<path fill="#004455" d="M6.9,510.6c4,0,6.1,2.4,6.1,5.4c0,3-2.2,5.3-6.1,5.3c-4,0-6.1-2.3-6.1-5.3C0.8,513,2.9,510.6,6.9,510.6z
		 M6.9,519.3c2.8,0,4.3-1.3,4.3-3.3c0-2-1.5-3.3-4.3-3.3c-2.8,0-4.3,1.3-4.3,3.3C2.6,518,4.1,519.3,6.9,519.3z"/>
	<path fill="#004455" d="M1,525h11.8v3.4c0,3.7-1.7,6.1-5.9,6.1c-4.2,0-6-2.5-6-6.1V525z M2.8,527v1.6c0,2.7,1.2,4,4.2,4
		c2.8,0,4-1.3,4-4V527H2.8z"/>
</g>
</svg>
