<?xml version="1.0" encoding="utf-8"?>
<!-- Generator: Adobe Illustrator 18.0.0, SVG Export Plug-In . SVG Version: 6.00 Build 0)  -->
<!DOCTYPE svg PUBLIC "-//W3C//DTD SVG 1.1//EN" "http://www.w3.org/Graphics/SVG/1.1/DTD/svg11.dtd">
<svg version="1.1" id="Layer_1" xmlns="http://www.w3.org/2000/svg" xmlns:xlink="http://www.w3.org/1999/xlink" x="0px" y="0px"
	 width="20px" height="580px" viewBox="0 0 20 580" enable-background="new 0 0 20 580" xml:space="preserve">
<g>
	<path fill="#FFFFFF" d="M18.8,7.2v1.4L1,15v-1.3l6-2.1V4.2L1,2.2V1L18.8,7.2z M8,11.2l9.5-3.3v0L8,4.6V11.2z"/>
	<path fill="#FFFFFF" d="M18.8,26.7v1.2H2.1v8.9H1V26.7H18.8z"/>
	<path fill="#FFFFFF" d="M18.8,48.8V50H1v-1.2H18.8z"/>
	<path fill="#FFFFFF" d="M18.8,63.4v10.3h-1.1v-9.1H11v6.8H9.9v-6.8H2.1v9.6H1V63.4H18.8z"/>
	<path fill="#FFFFFF" d="M18.8,86.1v1.4L3.4,97.8v0h15.4V99H1v-1l15.9-10.7v0H1v-1.2H18.8z"/>
	<path fill="#FFFFFF" d="M18.8,123.7v1.2l-11.4,3c-1.7,0.5-3.4,0.9-4.6,1.1v0c1.1,0.2,2.9,0.6,4.6,1.1l11.4,2.8v1.4l-11.5,2.9
		c-1.7,0.4-3.2,0.8-4.5,1.1v0c1.4,0.3,2.8,0.7,4.4,1.1l11.6,3v1.2L1,138.9v-1.2l16.1-4v0l-16.1-4v-1.2L18.8,123.7z"/>
	<path fill="#FFFFFF" d="M9.9,153.9c5.4,0,9.2,3,9.2,7.3c0,4.3-3.8,7.3-9.2,7.3s-9.2-3-9.2-7.3C0.7,156.9,4.5,153.9,9.9,153.9z
		 M9.9,167.3c5.1,0,8.1-2.6,8.1-6.1c0-3.5-3-6.1-8.1-6.1s-8.1,2.6-8.1,6.1C1.7,164.7,4.8,167.3,9.9,167.3z"/>
	<path fill="#FFFFFF" d="M18.8,180.7v5.8c0,3.9-1.7,6-4.6,6c-2.9,0-4.2-1.8-4.7-4.3L1,192.7v-1.4l8.3-4.5v-4.9H1v-1.2H18.8z
		 M10.4,186.4c0,3.1,0.9,4.9,3.7,4.9c2.6,0,3.6-1.8,3.6-4.9v-4.5h-7.2V186.4z"/>
	<path fill="#FFFFFF" d="M18.8,205.1v1.2H2.1v8.9H1v-10.1H18.8z"/>
	<path fill="#FFFFFF" d="M18.8,226.9v4.3c0,5.9-3.2,8.7-8.9,8.7c-5.7,0-8.9-2.9-8.9-8.7v-4.3H18.8z M2.1,231.4
		c0,4.5,2.4,7.2,7.8,7.2c5.3,0,7.8-2.7,7.8-7.3v-3.3H2.1V231.4z"/>
	<path fill="#FFFFFF" d="M5.4,251l0.3,1.2c-2.6,0.7-4,2.6-4,5.2c0,2.9,1.4,4.7,3.6,4.7c2,0,3-0.8,4.3-4.9c1.3-4,2.4-5.6,5.1-5.6
		c2.4,0,4.4,2.2,4.4,5.3c0,3.3-1.7,5.1-4.2,5.9l-0.3-1.2c2.5-0.8,3.4-2.4,3.4-4.8c0-2.5-1.5-4.1-3.2-4.1c-2.1,0-2.9,1.2-4.2,5.2
		c-1.2,3.8-2.5,5.3-5.2,5.3c-3,0-4.7-2.7-4.7-6C0.7,254.1,2.5,251.8,5.4,251z"/>
	<path fill="#004455" d="M7,287.6c3.8,0,6.1,2.1,6.1,5.2c0,2.2-1,3.9-3.7,4.6l-0.5-1.9c1.8-0.5,2.4-1.3,2.4-2.8
		c0-1.4-0.9-3.2-4.2-3.2c-3.3,0-4.4,1.6-4.4,3.3c0,1.6,0.9,2.6,2.7,2.8v-2.4h1.6v4.3H1v-1.6h1.7v0c-0.8-0.4-1.9-1.4-1.9-3.2
		C0.8,289.3,3.4,287.6,7,287.6z"/>
	<path fill="#004455" d="M1,301.7h11.8v4.2c0,2.8-1.1,4.5-3.6,4.5c-1.9,0-3-1-3.4-2.6L1,310.6v-2.1l4.7-2.7v-2.1H1V301.7z
		 M7.4,303.7v2.2c0,1.7,0.4,2.6,1.8,2.6c1.4,0,1.8-0.9,1.8-2.6v-2.2H7.4z"/>
	<path fill="#004455" d="M1,313.3l11.9,4.2v2L1,323.6v-2l2.8-1v-4.5l-2.8-1V313.3z M5.6,316.7v3.3l4.8-1.6v0L5.6,316.7z"/>
	<path fill="#004455" d="M1,329.2l11.9-4.1v2l-9.2,3.1v0l9.2,3.1v1.9L1,331.1V329.2z"/>
	<path fill="#004455" d="M1,338.6h11.8v2H1V338.6z"/>
	<path fill="#004455" d="M1,347.8h10v-3.6h1.9v9.3H11v-3.6H1V347.8z"/>
	<path fill="#004455" d="M1,359.8h5.1l6.7-4v2.1l-5,3l5,2.9v2.1l-6.7-4H1V359.8z"/>
	<path fill="#004455" d="M3.9,373.1c1.8,0,2.8,1.3,3.6,2.7c0.9-0.5,1.8-0.8,2.7-0.8c1.5,0,2.9,1,2.9,3.1c0,2-1.2,2.8-2.5,2.8
		c-1.7,0-2.7-1.3-3.4-2.8c-0.4,0.2-0.7,0.5-1.2,0.9c-0.8,0.6-1.4,1.1-1.8,1.6c0.8,0.5,1.7,0.8,2.8,1v1.7c-1.4-0.2-2.7-0.6-3.8-1.4
		c-0.5,0.8-0.7,1.5-0.7,2.3H0.8c0-1.4,0.3-2.4,1-3.5c-0.7-0.9-1.1-2-1.1-3.5C0.8,374.6,2.1,373.1,3.9,373.1z M2.9,379.4
		c0.5-0.6,1.2-1.2,2.1-1.9c0.5-0.4,0.9-0.7,1.3-1c-0.6-0.9-1.3-1.5-2.1-1.5c-1.2,0-1.8,0.8-1.8,2.3C2.4,378.1,2.5,378.8,2.9,379.4z
		 M10.4,379.3c0.6,0,1.1-0.4,1.1-1.1c0-0.8-0.4-1.3-1.3-1.3c-0.7,0-1.3,0.2-2,0.6C8.8,378.5,9.4,379.3,10.4,379.3z"/>
	<path fill="#004455" d="M1,392.9h11.8v4.1c0,2.6-0.9,4.6-3.6,4.6c-2.9,0-3.7-2.2-3.7-4.6v-2.1H1V392.9z M7.2,394.9v2.2
		c0,1.8,0.5,2.6,1.9,2.6c1.3,0,1.9-0.8,1.9-2.6v-2.2H7.2z"/>
	<path fill="#004455" d="M1,405.1h11.8v2h-10v5.5H1V405.1z"/>
	<path fill="#004455" d="M1,415.1l11.9,4.2v2L1,425.4v-2l2.8-1v-4.5l-2.8-1V415.1z M5.6,418.5v3.3l4.8-1.6v0L5.6,418.5z"/>
	<path fill="#004455" d="M1,428.7h11.8v2l-8.5,5.6v0h8.5v1.9H1v-1.8l8.6-5.8v0H1V428.7z"/>
	<path fill="#004455" d="M1,442.6h11.8v7.7H11v-5.7H8v4.1H6.3v-4.1H2.8v6H1V442.6z"/>
	<path fill="#004455" d="M1,456.8h10v-3.6h1.9v9.3H11v-3.7H1V456.8z"/>
	<path fill="#004455" d="M1,463.5l11.9,4.2v2L1,473.8v-2l2.8-1v-4.5l-2.8-1V463.5z M5.6,466.9v3.3l4.8-1.6v0L5.6,466.9z"/>
	<path fill="#004455" d="M1,477.2h11.8v4.2c0,2.8-1.1,4.5-3.6,4.5c-1.9,0-3-1-3.4-2.6L1,486v-2.1l4.7-2.7v-2.1H1V477.2z M7.4,479.1
		v2.2c0,1.7,0.4,2.6,1.8,2.6c1.4,0,1.8-0.9,1.8-2.6v-2.2H7.4z"/>
	<path fill="#004455" d="M1,492.3h5.1l6.7-4v2.1l-5,3l5,2.9v2.1l-6.7-4H1V492.3z"/>
	<path fill="#004455" d="M1,506.5h11.8v2.6l-9.4,3.2v0l9.4,3.1v2.7H1v-1.9h8.8v0c-0.8-0.2-1.6-0.4-2.4-0.7L1,513.1v-1.8l6.4-2.3
		c0.8-0.3,1.4-0.5,2.5-0.7v0H1V506.5z"/>
	<path fill="#004455" d="M6.9,521.8c4,0,6.1,2.4,6.1,5.4c0,3-2.2,5.3-6.1,5.3c-4,0-6.1-2.3-6.1-5.3C0.8,524.2,2.9,521.8,6.9,521.8z
		 M6.9,530.5c2.8,0,4.3-1.3,4.3-3.3c0-2-1.5-3.3-4.3-3.3s-4.3,1.3-4.3,3.3C2.6,529.2,4.1,530.5,6.9,530.5z"/>
	<path fill="#004455" d="M1,538.4h10v-3.6h1.9v9.3H11v-3.6H1V538.4z"/>
	<path fill="#004455" d="M1,547.5h11.8v2H1V547.5z"/>
	<path fill="#004455" d="M6.9,553.4c4,0,6.1,2.4,6.1,5.4c0,3-2.2,5.3-6.1,5.3c-4,0-6.1-2.3-6.1-5.3C0.8,555.7,2.9,553.4,6.9,553.4z
		 M6.9,562.1c2.8,0,4.3-1.3,4.3-3.3c0-2-1.5-3.3-4.3-3.3s-4.3,1.3-4.3,3.3C2.6,560.7,4.1,562.1,6.9,562.1z"/>
	<path fill="#004455" d="M1,567.8h11.8v2l-8.5,5.6v0h8.5v1.9H1v-1.8l8.6-5.8v0H1V567.8z"/>
</g>
</svg>
